/* XPM */
static char * C:\Users\The_Virus\Desktop\New folder\bitcoin32_xpm[] = {
"32 32 394 2",
"  	c None",
". 	c #201E11",
"+ 	c #4F4C2F",
"@ 	c #5C5A3A",
"# 	c #555439",
"$ 	c #565539",
"% 	c #595638",
"& 	c #504B2F",
"* 	c #221F13",
"= 	c #1F1B0D",
"- 	c #5D542A",
"; 	c #6A6033",
"> 	c #827439",
", 	c #917F37",
"' 	c #AB9440",
") 	c #BEA74C",
"! 	c #BFA951",
"~ 	c #AB9A4D",
"{ 	c #928547",
"] 	c #827644",
"^ 	c #645A33",
"/ 	c #5A4E2A",
"( 	c #241F10",
"_ 	c #151207",
": 	c #645625",
"< 	c #79672B",
"[ 	c #B19331",
"} 	c #F8CF4A",
"| 	c #CEAF43",
"1 	c #927E33",
"2 	c #6C5D28",
"3 	c #5B5024",
"4 	c #5A4F26",
"5 	c #6B6030",
"6 	c #918445",
"7 	c #CBBA66",
"8 	c #F9E682",
"9 	c #B4A862",
"0 	c #75683A",
"a 	c #5D4C24",
"b 	c #161208",
"c 	c #3E3312",
"d 	c #726023",
"e 	c #B39128",
"f 	c #EFC33B",
"g 	c #816B23",
"h 	c #201B0A",
"i 	c #000000",
"j 	c #1D1B0F",
"k 	c #817947",
"l 	c #EBDF88",
"m 	c #B7AE6D",
"n 	c #6C5A2B",
"o 	c #3B2E12",
"p 	c #4F4013",
"q 	c #745E1B",
"r 	c #EEBD2F",
"s 	c #9D7F23",
"t 	c #130F05",
"u 	c #11100A",
"v 	c #98925B",
"w 	c #EFE896",
"x 	c #716437",
"y 	c #4D3A14",
"z 	c #4D3D0F",
"A 	c #7C6217",
"B 	c #F6C12A",
"C 	c #5A4712",
"D 	c #565436",
"E 	c #F1EC9D",
"F 	c #756B3F",
"G 	c #4C3811",
"H 	c #3C2F09",
"I 	c #755C14",
"J 	c #F5BD24",
"K 	c #44350C",
"L 	c #41402B",
"M 	c #F2F0A4",
"N 	c #6F5E30",
"O 	c #3A290A",
"P 	c #100C02",
"Q 	c #755B12",
"R 	c #ECB41D",
"S 	c #5D480D",
"T 	c #56563A",
"U 	c #EAE193",
"V 	c #694D18",
"W 	c #110B02",
"X 	c #5F480B",
"Y 	c #AE8312",
"Z 	c #A47D14",
"` 	c #1E1B0D",
" .	c #605831",
"..	c #514D30",
"+.	c #4F4E34",
"@.	c #4C4A32",
"#.	c #3E3A24",
"$.	c #3D361F",
"%.	c #3D331A",
"&.	c #4A3B19",
"*.	c #493713",
"=.	c #4E370D",
"-.	c #503406",
";.	c #030200",
">.	c #9A9461",
",.	c #AC9450",
"'.	c #55390B",
").	c #191302",
"!.	c #75580C",
"~.	c #F4B818",
"{.	c #171203",
"].	c #1D190C",
"^.	c #80753E",
"/.	c #DED17B",
"(.	c #FDF59E",
"_.	c #FDFBAD",
":.	c #F9ED99",
"<.	c #DCC877",
"[.	c #D5B862",
"}.	c #D1AB4F",
"|.	c #D2A33E",
"1.	c #E7A730",
"2.	c #E3991B",
"3.	c #342102",
"4.	c #14130C",
"5.	c #E5C86D",
"6.	c #6B4C14",
"7.	c #1B1202",
"8.	c #5A4306",
"9.	c #A67C0C",
"0.	c #906C0E",
"a.	c #FDF296",
"b.	c #FDF9A8",
"c.	c #D9D38D",
"d.	c #2F230C",
"e.	c #DF9B24",
"f.	c #392504",
"g.	c #83723E",
"h.	c #9F7B32",
"i.	c #523507",
"j.	c #634A07",
"k.	c #F6B711",
"l.	c #2A2004",
"m.	c #F2E487",
"n.	c #FDF69F",
"o.	c #CECC8C",
"p.	c #946A1E",
"q.	c #392607",
"r.	c #231F11",
"s.	c #E5B448",
"t.	c #5B3B08",
"u.	c #100C01",
"v.	c #7F5F08",
"w.	c #DDA510",
"x.	c #EFDD7D",
"y.	c #FDF297",
"z.	c #CECC8A",
"A.	c #C69B3E",
"B.	c #744C0D",
"C.	c #130C01",
"D.	c #3C2C03",
"E.	c #8B6709",
"F.	c #A47A0C",
"G.	c #EFDA75",
"H.	c #FDEF8F",
"I.	c #CEC983",
"J.	c #0B0A05",
"K.	c #947836",
"L.	c #91712E",
"M.	c #7F5610",
"N.	c #3E2702",
"O.	c #5A4205",
"P.	c #9C7309",
"Q.	c #7E5E09",
"R.	c #EFD76D",
"S.	c #FEEC86",
"T.	c #DDD585",
"U.	c #17170F",
"V.	c #100F0A",
"W.	c #1F1D11",
"X.	c #A28F4F",
"Y.	c #CFAD54",
"Z.	c #6E5623",
"`.	c #906214",
" +	c #4D3003",
".+	c #523C05",
"++	c #AA7D09",
"@+	c #705308",
"#+	c #EFD465",
"$+	c #FEE87D",
"%+	c #FDF090",
"&+	c #FDF7A2",
"*+	c #FCF8A9",
"=+	c #F8EA95",
"-+	c #F5DC80",
";+	c #C5A856",
">+	c #5E4A1E",
",+	c #9D6C16",
"'+	c #4C2F03",
")+	c #A87C09",
"!+	c #EFD15D",
"~+	c #FEE575",
"{+	c #E5D67A",
"]+	c #1E1D12",
"^+	c #10100B",
"/+	c #1F1E14",
"(+	c #958953",
"_+	c #CEB463",
":+	c #614C1E",
"<+	c #4C3003",
"[+	c #563F05",
"}+	c #9A7208",
"|+	c #826109",
"1+	c #EFCD55",
"2+	c #FEE16C",
"3+	c #CFBE68",
"4+	c #12100A",
"5+	c #D7C16F",
"6+	c #725924",
"7+	c #8D6114",
"8+	c #382903",
"9+	c #8A6608",
"0+	c #AA7F0C",
"a+	c #EFCA4D",
"b+	c #FEDE64",
"c+	c #CFBB60",
"d+	c #0D0C07",
"e+	c #977630",
"f+	c #7D5510",
"g+	c #372302",
"h+	c #0A0701",
"i+	c #7E5D08",
"j+	c #E7AC10",
"k+	c #EFC845",
"l+	c #FEDB5B",
"m+	c #CFB859",
"n+	c #3C331A",
"o+	c #392D14",
"p+	c #CEA241",
"q+	c #724C0C",
"r+	c #0E0901",
"s+	c #614807",
"t+	c #EFB211",
"u+	c #372905",
"v+	c #F2C63E",
"w+	c #FED853",
"x+	c #D1B853",
"y+	c #3F3922",
"z+	c #E9CC6E",
"A+	c #4A3D1D",
"B+	c #2E2816",
"C+	c #E0AF47",
"D+	c #573907",
"E+	c #543F06",
"F+	c #9C750C",
"G+	c #9F7810",
"H+	c #1D1704",
"I+	c #FECD38",
"J+	c #FED44B",
"K+	c #F6D45A",
"L+	c #272311",
"M+	c #020201",
"N+	c #19180E",
"O+	c #46452E",
"P+	c #9D9A68",
"Q+	c #F5E48E",
"R+	c #D3BB6A",
"S+	c #060502",
"T+	c #927F46",
"U+	c #95742D",
"V+	c #4E3307",
"W+	c #0E0A01",
"X+	c #72570C",
"Y+	c #F6B918",
"Z+	c #231B04",
"`+	c #342603",
" @	c #D9A51A",
".@	c #FFC930",
"+@	c #FED142",
"@@	c #FED854",
"#@	c #FEDF66",
"$@	c #FEE679",
"%@	c #FDEE8B",
"&@	c #FDF59D",
"*@	c #FDFCAF",
"=@	c #D9CF86",
"-@	c #322E1B",
";@	c #1E1D13",
">@	c #EACD70",
",@	c #694912",
"'@	c #110B01",
")@	c #57420A",
"!@	c #9C7611",
"~@	c #BC9017",
"{@	c #010100",
"]@	c #120D01",
"^@	c #302508",
"/@	c #282009",
"(@	c #201C0C",
"_@	c #252110",
":@	c #302C18",
"<@	c #36331F",
"[@	c #28271A",
"}@	c #040403",
"|@	c #010101",
"1@	c #B1AA6F",
"2@	c #988345",
"3@	c #51370B",
"4@	c #050401",
"5@	c #735911",
"6@	c #DDA91B",
"7@	c #7A5E12",
"8@	c #73724E",
"9@	c #DED58B",
"0@	c #674A15",
"a@	c #080501",
"b@	c #292006",
"c@	c #735A14",
"d@	c #F1BA23",
"e@	c #624D11",
"f@	c #5A593B",
"g@	c #F1EFA3",
"h@	c #695526",
"i@	c #291D07",
"j@	c #3D310C",
"k@	c #745D18",
"l@	c #F0BC29",
"m@	c #7B6118",
"n@	c #76724A",
"o@	c #F2ED9E",
"p@	c #6C5D30",
"q@	c #3D2C0D",
"r@	c #3C310F",
"s@	c #755F1D",
"t@	c #DDAF2B",
"u@	c #BC982A",
"v@	c #28200A",
"w@	c #262416",
"x@	c #B9B16F",
"y@	c #DDD68B",
"z@	c #6D5C2E",
"A@	c #3C2E10",
"B@	c #28210B",
"C@	c #726025",
"D@	c #977B24",
"E@	c #F7C93D",
"F@	c #A4882D",
"G@	c #403513",
"H@	c #3E3920",
"I@	c #A19758",
"J@	c #F6E98E",
"K@	c #9A9259",
"L@	c #6D5928",
"M@	c #281F0C",
"N@	c #040301",
"O@	c #554920",
"P@	c #6F602A",
"Q@	c #967E2C",
"R@	c #E8C245",
"S@	c #EDC94D",
"T@	c #B49B3E",
"U@	c #8D7B35",
"V@	c #7D6D32",
"W@	c #7D6E35",
"X@	c #8C7E3F",
"Y@	c #B4A355",
"Z@	c #EDD977",
"`@	c #EAD97B",
" #	c #968C51",
".#	c #6F6033",
"+#	c #534521",
"@#	c #050402",
"##	c #090804",
"$#	c #514925",
"%#	c #5F572F",
"&#	c #786D3A",
"*#	c #86773B",
"=#	c #93813C",
"-#	c #9B883E",
";#	c #9B8A42",
">#	c #928445",
",#	c #867B45",
"'#	c #786E40",
")#	c #5C5330",
"!#	c #4D4325",
"~#	c #090704",
"{#	c #050503",
"]#	c #2A2819",
"^#	c #4B4930",
"/#	c #535238",
"(#	c #545338",
"_#	c #4B482F",
":#	c #2A2719",
"<#	c #050403",
"                        . + @ # $ % & *                         ",
"                  = - ; > , ' ) ! ~ { ] ^ / (                   ",
"              _ : < [ } | 1 2 3 4 5 6 7 8 9 0 a b               ",
"            c d e f g h i i i i i i i i j k l m n o             ",
"          p q r s t i i i i i i i i i i i i u v w x y           ",
"        z A B C i i i i i i i i i i i i i i i i D E F G         ",
"      H I J K i i i i i i i i i i i i i i i i i i L M N O       ",
"    P Q R S i i i i i i i i i i i i i i i i i i i i T U V W     ",
"    X Y Z i i i i `  ...+.@.#.$.%.&.*.=.-.;.i i i i i >.,.'.    ",
"  ).!.~.{.i i i i ].^./.(._.:.<.[.}.|.1.2.3.i i i i i 4.5.6.7.  ",
"  8.9.0.i i i i i i i j a.b.c.i i i i d.e.f.i i i i i i g.h.i.  ",
"  j.k.l.i i i i i i i i m.n.o.i i i i i p.q.i i i i i i r.s.t.  ",
"u.v.w.i i i i i i i i i x.y.z.i i i i i i i i i i i i i i A.B.C.",
"D.E.F.i i i i i i i i i G.H.I.i i i J.K.i i i i i i i i i L.M.N.",
"O.P.Q.i i i i i i i i i R.S.T.U.V.W.X.Y.i i i i i i i i i Z.`. +",
".+++@+i i i i i i i i i #+$+%+&+*+=+-+;+i i i i i i i i i >+,+'+",
".+)+@+i i i i i i i i i !+~+{+]+^+/+(+_+i i i i i i i i i :+,+<+",
"[+}+|+i i i i i i i i i 1+2+3+i i i 4+5+i i i i i i i i i 6+7+ +",
"8+9+0+i i i i i i i i i a+b+c+i i i i d+i i i i i i i i i e+f+g+",
"h+i+j+i i i i i i i i i k+l+m+i i i i i i n+o+i i i i i i p+q+r+",
"  s+t+u+i i i i i i i i v+w+x+i i i i i y+z+A+i i i i i B+C+D+  ",
"  E+F+G+i i i i i i i H+I+J+K+L+M+N+O+P+Q+R+S+i i i i i T+U+V+  ",
"  W+X+Y+Z+i i i i i `+ @.@+@@@#@$@%@&@*@=@-@i i i i i ;@>@,@'@  ",
"    )@!@~@{@i i i i ]@u+^@/@h (@_@:@<@[@}@i i i i i |@1@2@3@    ",
"    4@5@6@7@i i i i i i i i i i i i i i i i i i i i 8@9@0@a@    ",
"      b@c@d@e@i i i i i i i i i i i i i i i i i i f@g@h@i@      ",
"        j@k@l@m@{@i i i i i i i i i i i i i i |@n@o@p@q@        ",
"          r@s@t@u@v@i i i i i i i i i i i i w@x@y@z@A@          ",
"            B@C@D@E@F@G@M+i i i i i i M+H@I@J@K@L@M@            ",
"              N@O@P@Q@R@S@T@U@V@W@X@Y@Z@`@ #.#+#@#              ",
"                  ##$#%#&#*#=#-#;#>#,#'#)#!#~#                  ",
"                        {#]#^#/#(#_#:#<#                        "};
