/* XPM */
static char * C:\Users\The_Virus\Desktop\New folder\bitcoin16_xpm[] = {
"16 16 131 2",
"  	c None",
". 	c #544B26",
"+ 	c #6D6231",
"@ 	c #7B703C",
"# 	c #7B7141",
"$ 	c #6B633A",
"% 	c #51492A",
"& 	c #4E4015",
"* 	c #997F2A",
"= 	c #9D822B",
"- 	c #625320",
"; 	c #3A3216",
"> 	c #3A3319",
", 	c #62582E",
"' 	c #9C9152",
") 	c #95894F",
"! 	c #4A3D1D",
"~ 	c #5C4911",
"{ 	c #B18C21",
"] 	c #342A0B",
"^ 	c #000000",
"/ 	c #33301D",
"( 	c #AFA568",
"_ 	c #584821",
": 	c #4D3A08",
"< 	c #B38918",
"[ 	c #151004",
"} 	c #15140D",
"| 	c #B0A96E",
"1 	c #47340F",
"2 	c #95700D",
"3 	c #382B07",
"4 	c #110F06",
"5 	c #8C8148",
"6 	c #AEAB72",
"7 	c #978D57",
"8 	c #90793D",
"9 	c #9C7528",
"0 	c #5D3C07",
"a 	c #353424",
"b 	c #8E7334",
"c 	c #513C04",
"d 	c #A1780B",
"e 	c #0D0C06",
"f 	c #FDF296",
"g 	c #726F4A",
"h 	c #0F0C05",
"i 	c #815A15",
"j 	c #998448",
"k 	c #4B3107",
"l 	c #654B06",
"m 	c #684D07",
"n 	c #FEEB85",
"o 	c #6F6E4A",
"p 	c #2D2612",
"q 	c #5F532D",
"r 	c #5C3C0A",
"s 	c #745606",
"t 	c #463405",
"u 	c #FEE474",
"v 	c #C1BA74",
"w 	c #908B5C",
"x 	c #D3B966",
"y 	c #3F371E",
"z 	c #6B480D",
"A 	c #725406",
"B 	c #473505",
"C 	c #FEDE63",
"D 	c #7E7643",
"E 	c #12120C",
"F 	c #9F9359",
"G 	c #41391F",
"H 	c #6A470C",
"I 	c #634906",
"J 	c #6C5008",
"K 	c #FED752",
"L 	c #706534",
"M 	c #040402",
"N 	c #131109",
"O 	c #100C05",
"P 	c #645730",
"Q 	c #593C0A",
"R 	c #4E3904",
"S 	c #A3790B",
"T 	c #0C0901",
"U 	c #FED041",
"V 	c #867635",
"W 	c #100F09",
"X 	c #3F3E2B",
"Y 	c #C5B46C",
"Z 	c #161209",
"` 	c #9B8749",
" .	c #472E06",
"..	c #916D0D",
"+.	c #423208",
"@.	c #5D4505",
"#.	c #9C7B1D",
"$.	c #8F7A2F",
"%.	c #9A8C4A",
"&.	c #9B9660",
"*.	c #49462D",
"=.	c #3E3D2A",
"-.	c #896F31",
";.	c #433308",
">.	c #B08817",
",.	c #1D1705",
"'.	c #1C1B11",
").	c #ADA56A",
"!.	c #3D2C0D",
"~.	c #51400F",
"{.	c #B18C22",
"].	c #44370F",
"^.	c #413E26",
"/.	c #AFA467",
"(.	c #4E3F1C",
"_.	c #433712",
":.	c #8F7729",
"<.	c #A3882E",
"[.	c #726025",
"}.	c #4C421C",
"|.	c #4C4320",
"1.	c #726736",
"2.	c #A19554",
"3.	c #8C8048",
"4.	c #413518",
"5.	c #4B4322",
"6.	c #5E552B",
"7.	c #6E6537",
"8.	c #6F673C",
"9.	c #5D5533",
"0.	c #484025",
"          . + @ # $ %           ",
"      & * = - ; > , ' ) !       ",
"    ~ { ] ^ ^ ^ ^ ^ ^ / ( _     ",
"  : < [ ^ ^ ^ ^ ^ ^ ^ ^ } | 1   ",
"  2 3 ^ 4 5 6 7 8 9 0 ^ ^ a b   ",
"c d ^ ^ ^ e f g ^ h i ^ ^ ^ j k ",
"l m ^ ^ ^ ^ n o ^ p ^ ^ ^ ^ q r ",
"s t ^ ^ ^ ^ u v w x ^ ^ ^ ^ y z ",
"A B ^ ^ ^ ^ C D E F ^ ^ ^ ^ G H ",
"I J ^ ^ ^ ^ K L ^ M N O ^ ^ P Q ",
"R S ^ ^ ^ T U V W X Y Z ^ ^ `  .",
"  ..+.^ ^ @.#.$.%.&.*.^ ^ =.-.  ",
"  ;.>.,.^ ^ ^ ^ ^ ^ ^ ^ '.).!.  ",
"    ~.{.].^ ^ ^ ^ ^ ^ ^./.(.    ",
"      _.:.<.[.}.|.1.2.3.4.      ",
"          5.6.7.8.9.0.          "};
